include "include/hUGE.inc"

SECTION "Song Title", ROMX

song_title::
db 11
dw order_cnt
dw order1, order2, order3, order4
dw duty_instruments, wave_instruments, noise_instruments
dw routines
dw waves

order_cnt: db 12
order1: dw P0c,P0c,P0c,P0c,P0c,P0c
order2: dw P41,P51,P0c,P0c,P0c,P0c
order3: dw P42,P22,P32,P2,P22,P32
order4: dw P23,P23,P23,P0c,P23,P23


P2:
 dn G_5,1,$C0F
 dn ___,0,$C07
 dn ___,0,$C0F
 dn ___,0,$C07
 dn ___,0,$C01
 dn ___,0,$C05
 dn ___,0,$C01
 dn ___,0,$C01
 dn ___,0,$000
 dn ___,0,$C01
 dn ___,0,$C05
 dn ___,0,$C01
 dn ___,0,$C01
 dn D_5,1,$C0F
 dn F#5,1,$C0F
 dn ___,0,$C07
 dn ___,0,$C0F
 dn ___,0,$C07
 dn G_5,1,$C0F
 dn ___,0,$C07
 dn ___,0,$C01
 dn ___,0,$000
 dn ___,0,$C05
 dn ___,0,$C01
 dn ___,0,$C01
 dn ___,0,$000
 dn ___,0,$000
 dn ___,0,$000
 dn ___,0,$000
 dn ___,0,$000
 dn D_5,1,$C0F
 dn ___,0,$C07
 dn C_5,1,$C0F
 dn ___,0,$C07
 dn ___,0,$C0F
 dn ___,0,$C07
 dn ___,0,$C01
 dn ___,0,$C07
 dn ___,0,$C01
 dn ___,0,$000
 dn ___,0,$C05
 dn ___,0,$C01
 dn ___,0,$C01
 dn ___,0,$000
 dn ___,0,$000
 dn D_5,1,$C01
 dn E_5,1,$C0F
 dn ___,0,$C07
 dn B_4,1,$C0F
 dn ___,0,$C07
 dn C_5,1,$C0F
 dn ___,0,$C07
 dn ___,0,$C01
 dn ___,0,$000
 dn ___,0,$C01
 dn ___,0,$000
 dn ___,0,$C0F
 dn ___,0,$C07
 dn ___,0,$C0F
 dn ___,0,$C07
 dn ___,0,$C01
 dn ___,0,$000
 dn F_5,1,$C0F
 dn ___,0,$C07

P22:
 dn G_5,1,$C0F
 dn ___,0,$C07
 dn ___,0,$C0F
 dn ___,0,$C07
 dn ___,0,$C01
 dn ___,0,$C05
 dn ___,0,$C01
 dn ___,0,$C01
 dn ___,0,$000
 dn ___,0,$C01
 dn ___,0,$C05
 dn ___,0,$C01
 dn ___,0,$C01
 dn D_5,1,$C0F
 dn F#5,1,$C0F
 dn D_6,1,$C07
 dn F#5,1,$C0F
 dn F#5,1,$C07
 dn G_5,1,$C0F
 dn ___,0,$C07
 dn ___,0,$C01
 dn ___,0,$C04
 dn ___,0,$C01
 dn ___,0,$000
 dn ___,0,$C01
 dn ___,0,$000
 dn ___,0,$000
 dn ___,0,$000
 dn ___,0,$000
 dn ___,0,$000
 dn D_5,1,$C0F
 dn ___,0,$C07
 dn C_5,1,$C0F
 dn ___,0,$C07
 dn ___,0,$C0F
 dn ___,0,$C07
 dn ___,0,$C01
 dn ___,0,$C0F
 dn ___,0,$C07
 dn ___,0,$C01
 dn ___,0,$000
 dn ___,0,$C01
 dn C_6,1,$C01
 dn ___,0,$C01
 dn ___,0,$000
 dn D_5,1,$C01
 dn E_5,1,$C0F
 dn G_5,1,$C07
 dn B_4,1,$C0F
 dn B_4,1,$C07
 dn C_5,1,$C0F
 dn ___,0,$C07
 dn C_5,1,$C01
 dn C_6,1,$C01
 dn ___,0,$C01
 dn ___,0,$000
 dn C_5,1,$C0F
 dn ___,0,$C07
 dn ___,0,$C0F
 dn ___,0,$C07
 dn ___,0,$C01
 dn ___,0,$000
 dn F_5,1,$C0F
 dn ___,0,$C07

P23:
 dn ___,0,$E00
 dn C_7,1,$C01
 dn C_7,1,$C07
 dn C_7,1,$C01
 dn ___,0,$E00
 dn C_7,1,$C01
 dn C_7,1,$C07
 dn C_7,1,$C01
 dn ___,0,$E00
 dn ___,0,$E00
 dn C_7,1,$C07
 dn C_7,1,$C01
 dn ___,0,$E00
 dn C_7,1,$C01
 dn C_7,1,$C07
 dn C_7,1,$C01
 dn ___,0,$E00
 dn C_7,1,$C01
 dn C_7,1,$C07
 dn C_7,1,$C01
 dn ___,0,$E00
 dn C_7,1,$C01
 dn C_7,1,$C07
 dn ___,0,$E00
 dn C_7,1,$C03
 dn ___,0,$E00
 dn C_7,1,$C07
 dn C_7,1,$C01
 dn ___,0,$E00
 dn C_7,1,$C01
 dn C_7,1,$C07
 dn C_7,1,$E00
 dn ___,0,$E00
 dn C_7,1,$C01
 dn C_7,1,$C07
 dn C_7,1,$C01
 dn ___,0,$E00
 dn C_7,1,$C01
 dn C_7,1,$C07
 dn C_7,1,$C01
 dn ___,0,$E00
 dn ___,0,$000
 dn C_7,1,$C07
 dn C_7,1,$C01
 dn ___,0,$E00
 dn C_7,1,$C01
 dn C_7,1,$C07
 dn C_7,1,$C01
 dn ___,0,$E00
 dn C_7,1,$C01
 dn C_7,1,$C07
 dn C_7,1,$C01
 dn ___,0,$E00
 dn C_7,1,$C01
 dn C_7,1,$C07
 dn ___,0,$E00
 dn C_7,1,$C03
 dn ___,0,$E00
 dn C_7,1,$C07
 dn C_7,1,$C01
 dn ___,0,$E00
 dn C_7,1,$C01
 dn C_7,1,$C07
 dn C_7,1,$C01

P32:
 dn G_5,1,$C0F
 dn ___,0,$C07
 dn ___,0,$C0F
 dn ___,0,$C07
 dn ___,0,$C01
 dn ___,0,$C05
 dn ___,0,$C01
 dn ___,0,$C01
 dn ___,0,$000
 dn G_5,1,$C01
 dn ___,0,$C05
 dn ___,0,$C01
 dn ___,0,$C01
 dn B_5,1,$C0F
 dn A_5,1,$C0F
 dn D_6,1,$C07
 dn F#5,1,$C0F
 dn F#5,1,$C07
 dn G_5,1,$C0F
 dn ___,0,$C07
 dn ___,0,$C01
 dn G_6,1,$C01
 dn ___,0,$C01
 dn ___,0,$000
 dn G_5,1,$C01
 dn ___,0,$000
 dn ___,0,$000
 dn ___,0,$000
 dn ___,0,$000
 dn ___,0,$000
 dn ___,0,$000
 dn ___,0,$D01

P41:
 dn G_6,1,$C0F
 dn G_6,1,$C03
 dn A_6,1,$C0F
 dn G_6,1,$C0F
 dn A_6,1,$C01
 dn D_6,1,$C0F
 dn G_5,1,$C01
 dn D_5,1,$C01
 dn C_6,1,$C0F
 dn G_6,1,$C01
 dn C_6,1,$C03
 dn B_5,1,$C0F
 dn C_6,1,$C03
 dn B_5,1,$C01
 dn C_6,1,$C01
 dn B_5,1,$C00
 dn G_6,1,$C0F
 dn G_6,1,$C01
 dn A_6,1,$C0F
 dn G_6,1,$C0F
 dn A_6,1,$C01
 dn D_6,1,$C0F
 dn G_6,1,$C01
 dn D_6,1,$C01
 dn C_6,1,$C0F
 dn D_6,1,$C01
 dn C_6,1,$C03
 dn B_5,1,$C0F
 dn C_6,1,$C03
 dn B_5,1,$C01
 dn C_6,1,$C01
 dn B_5,1,$C00
 dn G_6,1,$C0F
 dn G_6,1,$C01
 dn A_6,1,$C0F
 dn G_6,1,$C0F
 dn A_5,1,$C01
 dn E_6,1,$C0F
 dn A_6,1,$C01
 dn D_5,1,$C01
 dn D_6,1,$C0F
 dn E_6,1,$C01
 dn D_6,1,$C03
 dn C_6,1,$C0F
 dn D_6,1,$C03
 dn C_6,1,$C01
 dn D_6,1,$C01
 dn C_6,1,$C00
 dn G_6,1,$C0F
 dn G_6,1,$C01
 dn A_6,1,$C0F
 dn G_6,1,$C0F
 dn A_6,1,$C01
 dn E_6,1,$C0F
 dn G_6,1,$C01
 dn E_6,1,$C03
 dn D_6,1,$C0F
 dn E_6,1,$C01
 dn D_6,1,$C03
 dn C_6,1,$C0F
 dn D_6,1,$C03
 dn C_6,1,$C01
 dn D_6,1,$C01
 dn C_6,1,$C00

P42:
 dn G_5,1,$C0F
 dn ___,0,$C07
 dn ___,0,$C0F
 dn ___,0,$C07
 dn ___,0,$C01
 dn ___,0,$C05
 dn ___,0,$C01
 dn ___,0,$C01
 dn ___,0,$000
 dn ___,0,$C01
 dn ___,0,$C05
 dn ___,0,$C01
 dn ___,0,$C01
 dn D_5,1,$C0F
 dn F#5,1,$C0F
 dn D_6,1,$C07
 dn F#5,1,$C0F
 dn F#5,1,$C07
 dn G_5,1,$C0F
 dn ___,0,$C07
 dn ___,0,$C01
 dn G_6,1,$C01
 dn ___,0,$C01
 dn ___,0,$000
 dn G_5,1,$C01
 dn ___,0,$000
 dn ___,0,$000
 dn ___,0,$000
 dn ___,0,$000
 dn ___,0,$000
 dn D_5,1,$C0F
 dn ___,0,$C07
 dn C_5,1,$C0F
 dn ___,0,$C07
 dn ___,0,$C0F
 dn ___,0,$C07
 dn ___,0,$C01
 dn ___,0,$C0F
 dn ___,0,$C07
 dn ___,0,$C01
 dn ___,0,$000
 dn ___,0,$C01
 dn C_6,1,$C01
 dn ___,0,$C01
 dn ___,0,$000
 dn D_5,1,$C01
 dn E_5,1,$C0F
 dn G_5,1,$C07
 dn B_4,1,$C0F
 dn ___,0,$C07
 dn C_5,1,$C0F
 dn ___,0,$C07
 dn ___,0,$C01
 dn C_6,1,$C01
 dn ___,0,$C01
 dn ___,0,$000
 dn C_5,1,$C0F
 dn ___,0,$C07
 dn ___,0,$C0F
 dn ___,0,$C07
 dn ___,0,$C01
 dn ___,0,$000
 dn F_5,1,$C0F
 dn ___,0,$C07

P51:
 dn G_6,1,$C0F
 dn G_6,1,$C03
 dn A_6,1,$C0F
 dn B_6,1,$C0F
 dn A_6,1,$C01
 dn D_6,1,$C0F
 dn B_6,1,$C01
 dn D_5,1,$C01
 dn C_6,1,$C0F
 dn G_6,1,$C01
 dn C_6,1,$C03
 dn B_5,1,$C0F
 dn C_6,1,$C03
 dn B_5,1,$C01
 dn C_6,1,$C01
 dn B_5,1,$C00
 dn G_6,1,$C0F
 dn G_6,1,$C01
 dn C_6,1,$C0F
 dn D_6,1,$C0F
 dn C_6,1,$C01
 dn D_6,1,$C0F
 dn D_6,1,$C01
 dn D_6,1,$C01
 dn C_6,1,$C0F
 dn D_6,1,$C01
 dn C_6,1,$C03
 dn B_5,1,$C0F
 dn C_6,1,$C03
 dn B_5,1,$C01
 dn C_6,1,$C01
 dn B_5,1,$C00
 dn G_6,1,$C0F
 dn G_6,1,$C01
 dn D_6,1,$C0F
 dn E_6,1,$C0F
 dn A_5,1,$C01
 dn E_6,1,$C0F
 dn A_6,1,$C01
 dn D_5,1,$C01
 dn D_6,1,$C0F
 dn E_6,1,$C01
 dn D_6,1,$C03
 dn C_6,1,$C0F
 dn D_6,1,$C03
 dn C_6,1,$C01
 dn D_6,1,$C01
 dn C_6,1,$C00
 dn G_6,1,$C0F
 dn G_6,1,$C01
 dn A_6,1,$C0F
 dn G_6,1,$C0F
 dn A_6,1,$C01
 dn E_6,1,$C0F
 dn G_6,1,$C01
 dn E_6,1,$C03
 dn D_6,1,$C0F
 dn E_6,1,$C01
 dn D_6,1,$C03
 dn C_6,1,$C0F
 dn D_6,1,$C03
 dn C_6,1,$C01
 dn D_6,1,$C01
 dn C_6,1,$C00

duty_instruments:
itSquareinst1: db 8,128,247,128

wave_instruments:
itWaveinst1: db 0,32,0,128

noise_instruments:
itNoiseinst1: db 164,0,0,0,0,0,0,0

routines:

waves:
wave0: db 121,188,222,239,255,238,220,185,117,67,33,16,0,17,35,69
