include "include/hUGE.inc"

SECTION "Song Battle", ROMX

song_battle_0::
db 7
dw order_cnt
dw order1, order2, order3, order4
dw duty_instruments, wave_instruments, noise_instruments
dw routines
dw waves

order_cnt: db 24
order1: dw P0c,P0c,P20,P20,P0c,P0c,P41,P41,P0c,P0c,P20,P20
order2: dw P0c,P30,P21,P21,P11,P11,P40,P40,P11,P30,P21,P21
order3: dw P2,P32,P22,P22,P12,P12,P42,P42,P12,P32,P22,P22
order4: dw P3,P33,P23,P23,P13,P13,P0c,P0c,P13,P33,P23,P23

P0c:: ; special exported pattern that just cuts the channel and is silent
 dn ___,0,$E00
 dn ___,0,$000
 dn ___,0,$000
 dn ___,0,$000
 dn ___,0,$000
 dn ___,0,$000
 dn ___,0,$000
 dn ___,0,$000
 dn ___,0,$000
 dn ___,0,$000
 dn ___,0,$000
 dn ___,0,$000
 dn ___,0,$000
 dn ___,0,$000
 dn ___,0,$000
 dn ___,0,$000
 dn ___,0,$000
 dn ___,0,$000
 dn ___,0,$000
 dn ___,0,$000
 dn ___,0,$000
 dn ___,0,$000
 dn ___,0,$000
 dn ___,0,$000
 dn ___,0,$000
 dn ___,0,$000
 dn ___,0,$000
 dn ___,0,$000
 dn ___,0,$000
 dn ___,0,$000
 dn ___,0,$000
 dn ___,0,$000
 dn ___,0,$000
 dn ___,0,$000
 dn ___,0,$000
 dn ___,0,$000
 dn ___,0,$000
 dn ___,0,$000
 dn ___,0,$000
 dn ___,0,$000
 dn ___,0,$000
 dn ___,0,$000
 dn ___,0,$000
 dn ___,0,$000
 dn ___,0,$000
 dn ___,0,$000
 dn ___,0,$000
 dn ___,0,$000
 dn ___,0,$000
 dn ___,0,$000
 dn ___,0,$000
 dn ___,0,$000
 dn ___,0,$000
 dn ___,0,$000
 dn ___,0,$000
 dn ___,0,$000
 dn ___,0,$000
 dn ___,0,$000
 dn ___,0,$000
 dn ___,0,$000
 dn ___,0,$000
 dn ___,0,$000
 dn ___,0,$000
 dn ___,0,$000

P2:
 dn F#5,1,$C0F
 dn ___,0,$000
 dn ___,0,$E00
 dn F#5,1,$C0F
 dn B_5,1,$C0F
 dn C#6,1,$C0F
 dn ___,0,$E00
 dn F#5,1,$C0F
 dn ___,0,$E00
 dn F#5,1,$C0F
 dn ___,0,$E00
 dn ___,0,$000
 dn ___,0,$000
 dn ___,0,$000
 dn ___,0,$000
 dn ___,0,$000
 dn ___,0,$000
 dn ___,0,$000
 dn ___,0,$000
 dn ___,0,$000
 dn E_5,1,$C0F
 dn ___,0,$000
 dn ___,0,$E00
 dn E_5,1,$C0F
 dn G#5,1,$C0F
 dn A_5,1,$C0F
 dn ___,0,$E00
 dn B_5,1,$C0F
 dn ___,0,$E00
 dn G#5,1,$C0F
 dn ___,0,$C0B
 dn ___,0,$C07
 dn F#5,1,$C0F
 dn ___,0,$000
 dn ___,0,$E00
 dn F#5,1,$C0F
 dn B_5,1,$C0F
 dn C#6,1,$C0F
 dn ___,0,$E00
 dn F#5,1,$C0F
 dn ___,0,$C01
 dn ___,0,$C0F
 dn ___,0,$E00
 dn ___,0,$000
 dn ___,0,$000
 dn ___,0,$000
 dn ___,0,$000
 dn ___,0,$000
 dn ___,0,$000
 dn ___,0,$000
 dn E_5,1,$C0F
 dn ___,0,$000
 dn ___,0,$C0F
 dn ___,0,$000
 dn C#5,1,$C0F
 dn ___,0,$000
 dn B_4,1,$C0F
 dn C#5,1,$C0F
 dn ___,0,$E00
 dn B_4,1,$C0F
 dn ___,0,$E00
 dn A_4,1,$C0F
 dn ___,0,$C0B
 dn ___,0,$C07

P3:
 dn C_7,1,$000
 dn ___,0,$000
 dn ___,0,$000
 dn ___,0,$000
 dn C_7,1,$C07
 dn C_7,1,$C00
 dn ___,0,$000
 dn ___,0,$000
 dn C_7,1,$C03
 dn C_7,1,$C00
 dn ___,0,$000
 dn ___,0,$000
 dn C_7,1,$C07
 dn C_7,1,$C00
 dn ___,0,$000
 dn ___,0,$000
 dn C_7,1,$C03
 dn C_7,1,$C00
 dn ___,0,$000
 dn ___,0,$000
 dn C_7,1,$C07
 dn C_7,1,$C00
 dn ___,0,$000
 dn ___,0,$000
 dn C_7,1,$C03
 dn C_7,1,$C00
 dn ___,0,$000
 dn ___,0,$000
 dn C_7,1,$C07
 dn C_7,1,$C00
 dn ___,0,$000
 dn ___,0,$000
 dn C_7,1,$C03
 dn C_7,1,$C00
 dn ___,0,$000
 dn ___,0,$000
 dn C_7,1,$C07
 dn C_7,1,$C00
 dn ___,0,$000
 dn ___,0,$000
 dn C_7,1,$C03
 dn C_7,1,$C00
 dn ___,0,$000
 dn ___,0,$000
 dn C_7,1,$C07
 dn C_7,1,$C00
 dn ___,0,$000
 dn ___,0,$000
 dn C_7,1,$C03
 dn C_7,1,$C00
 dn ___,0,$000
 dn ___,0,$000
 dn C_7,1,$C07
 dn C_7,1,$C00
 dn ___,0,$000
 dn ___,0,$000
 dn C_7,1,$C03
 dn C_7,1,$C00
 dn ___,0,$000
 dn ___,0,$000
 dn C_7,1,$C07
 dn C_7,1,$C00
 dn ___,0,$000
 dn ___,0,$000

P11:
 dn F#5,1,$C0B
 dn F#5,1,$C07
 dn F#5,1,$C03
 dn E_5,1,$C0B
 dn F#5,1,$C0B
 dn F#5,1,$C07
 dn F#5,1,$C03
 dn E_5,1,$C0B
 dn A_5,1,$C0B
 dn G#5,1,$C0B
 dn G#5,1,$C07
 dn F#5,1,$C0B
 dn F#5,1,$C07
 dn F#5,1,$C03
 dn E_5,1,$C0B
 dn E_5,1,$C07
 dn F#5,1,$C0B
 dn F#5,1,$C07
 dn F#5,1,$C0B
 dn F#5,1,$C07
 dn B_5,1,$C0B
 dn C#6,1,$C0B
 dn C#6,1,$C07
 dn B_5,1,$C0B
 dn B_5,1,$C07
 dn B_5,1,$C03
 dn B_5,1,$C03
 dn B_5,1,$C03
 dn C#6,1,$C0B
 dn C#6,1,$C07
 dn C#6,1,$C03
 dn C#6,1,$C03
 dn F#5,1,$C0B
 dn F#5,1,$C07
 dn F#5,1,$C03
 dn E_5,1,$C0B
 dn F#5,1,$C0B
 dn F#5,1,$C07
 dn F#5,1,$C03
 dn E_5,1,$C0B
 dn B_5,1,$C0B
 dn C#6,1,$C0B
 dn C#6,1,$C07
 dn B_5,1,$C0B
 dn B_5,1,$C07
 dn B_5,1,$C03
 dn G#5,1,$C07
 dn G#5,1,$C03
 dn F#5,1,$C07
 dn F#5,1,$C00
 dn F#5,1,$C07
 dn F#5,1,$C00
 dn E_5,1,$C0B
 dn F#5,1,$C0B
 dn F#5,1,$C00
 dn A_5,1,$C07
 dn A_5,1,$C00
 dn G#5,1,$C07
 dn G#5,1,$C00
 dn F#5,1,$C0B
 dn F#5,1,$C00
 dn E_5,1,$C07
 dn F#5,1,$C0B
 dn F#5,1,$C00

P12:
 dn F#5,1,$C0B
 dn ___,0,$000
 dn ___,0,$E00
 dn F#5,1,$C0B
 dn B_5,1,$C0B
 dn C#6,1,$C0B
 dn ___,0,$E00
 dn F#5,1,$C0B
 dn ___,0,$C01
 dn ___,0,$C0B
 dn ___,0,$E00
 dn ___,0,$000
 dn ___,0,$000
 dn ___,0,$000
 dn ___,0,$000
 dn ___,0,$000
 dn ___,0,$000
 dn ___,0,$000
 dn ___,0,$000
 dn ___,0,$000
 dn E_5,1,$C0B
 dn ___,0,$000
 dn ___,0,$E00
 dn E_5,1,$C0B
 dn G#5,1,$C0B
 dn A_5,1,$C0B
 dn ___,0,$E00
 dn B_5,1,$C0B
 dn ___,0,$E00
 dn G#5,1,$C0B
 dn ___,0,$C07
 dn ___,0,$C03
 dn F#5,1,$C0B
 dn ___,0,$000
 dn ___,0,$E00
 dn F#5,1,$C0B
 dn B_5,1,$C0B
 dn C#6,1,$C0B
 dn ___,0,$E00
 dn F#5,1,$C0B
 dn ___,0,$E00
 dn F#5,1,$C0B
 dn ___,0,$E00
 dn ___,0,$000
 dn ___,0,$000
 dn ___,0,$000
 dn ___,0,$000
 dn ___,0,$000
 dn ___,0,$000
 dn ___,0,$000
 dn E_5,1,$C0B
 dn ___,0,$000
 dn ___,0,$C0B
 dn ___,0,$000
 dn C#5,1,$C0B
 dn ___,0,$000
 dn B_4,1,$C0B
 dn C#5,1,$C0B
 dn ___,0,$E00
 dn B_4,1,$C0B
 dn ___,0,$E00
 dn A_4,1,$C0B
 dn ___,0,$C07
 dn ___,0,$C03

P13:
 dn C_7,1,$C03
 dn C_7,1,$C00
 dn ___,0,$000
 dn ___,0,$000
 dn C_7,1,$C07
 dn C_7,1,$C00
 dn ___,0,$000
 dn ___,0,$000
 dn C_7,1,$C03
 dn C_7,1,$C00
 dn ___,0,$000
 dn ___,0,$000
 dn C_7,1,$C07
 dn C_7,1,$C00
 dn ___,0,$000
 dn ___,0,$000
 dn C_7,1,$C03
 dn C_7,1,$C00
 dn ___,0,$000
 dn ___,0,$000
 dn C_7,1,$C07
 dn C_7,1,$C00
 dn ___,0,$000
 dn ___,0,$000
 dn C_7,1,$C03
 dn C_7,1,$C00
 dn ___,0,$000
 dn ___,0,$000
 dn C_7,1,$C07
 dn C_7,1,$C00
 dn ___,0,$000
 dn ___,0,$000
 dn C_7,1,$C03
 dn C_7,1,$C00
 dn ___,0,$000
 dn ___,0,$000
 dn C_7,1,$C07
 dn C_7,1,$C00
 dn ___,0,$000
 dn ___,0,$000
 dn C_7,1,$C03
 dn C_7,1,$C00
 dn ___,0,$000
 dn ___,0,$000
 dn C_7,1,$C07
 dn C_7,1,$C00
 dn ___,0,$000
 dn ___,0,$000
 dn C_7,1,$C03
 dn C_7,1,$C00
 dn ___,0,$000
 dn ___,0,$000
 dn C_7,1,$C07
 dn C_7,1,$C00
 dn ___,0,$000
 dn ___,0,$000
 dn C_7,1,$C03
 dn C_7,1,$C00
 dn ___,0,$000
 dn ___,0,$000
 dn C_7,1,$C03
 dn C_7,1,$C03
 dn C_7,1,$C07
 dn C_7,1,$C00

P20:
 dn F#5,1,$C0B
 dn ___,0,$000
 dn ___,0,$000
 dn ___,0,$000
 dn F#4,1,$C0B
 dn ___,0,$000
 dn ___,0,$000
 dn ___,0,$000
 dn C#4,1,$C07
 dn ___,0,$000
 dn ___,0,$000
 dn ___,0,$000
 dn F#4,1,$C0B
 dn ___,0,$000
 dn ___,0,$000
 dn ___,0,$000
 dn E_4,1,$C0B
 dn ___,0,$000
 dn ___,0,$000
 dn ___,0,$000
 dn C#4,1,$C0B
 dn ___,0,$000
 dn ___,0,$000
 dn ___,0,$000
 dn C#5,1,$C07
 dn ___,0,$000
 dn ___,0,$000
 dn ___,0,$000
 dn F_5,1,$C0B
 dn ___,0,$000
 dn ___,0,$000
 dn ___,0,$000
 dn F#5,1,$C0B
 dn ___,0,$000
 dn ___,0,$000
 dn ___,0,$000
 dn F#4,1,$C0B
 dn ___,0,$000
 dn ___,0,$000
 dn ___,0,$000
 dn C#4,1,$C07
 dn ___,0,$000
 dn ___,0,$000
 dn ___,0,$000
 dn F#4,1,$C0B
 dn ___,0,$000
 dn ___,0,$000
 dn ___,0,$000
 dn E_4,1,$C0B
 dn ___,0,$000
 dn ___,0,$000
 dn ___,0,$000
 dn C#4,1,$C0B
 dn ___,0,$000
 dn ___,0,$000
 dn ___,0,$000
 dn C#5,1,$C07
 dn ___,0,$000
 dn ___,0,$000
 dn ___,0,$000
 dn F#5,1,$C0B
 dn ___,0,$000
 dn ___,0,$000
 dn ___,0,$000

P21:
 dn ___,0,$000
 dn ___,0,$000
 dn A_4,1,$C07
 dn ___,0,$000
 dn ___,0,$000
 dn ___,0,$000
 dn A_5,1,$C07
 dn ___,0,$000
 dn ___,0,$000
 dn F#5,1,$C07
 dn A_5,1,$C0B
 dn ___,0,$000
 dn A_5,1,$C07
 dn A_5,1,$C03
 dn F#5,1,$C07
 dn ___,0,$000
 dn E_5,1,$C03
 dn ___,0,$000
 dn C#6,1,$C07
 dn ___,0,$000
 dn ___,0,$000
 dn ___,0,$000
 dn B_5,1,$C07
 dn ___,0,$000
 dn ___,0,$000
 dn ___,0,$000
 dn A_5,1,$C07
 dn G#5,1,$C0B
 dn ___,0,$000
 dn G#5,1,$C07
 dn B_5,1,$C0B
 dn ___,0,$000
 dn C#6,1,$C03
 dn ___,0,$000
 dn A_4,1,$C07
 dn ___,0,$000
 dn ___,0,$000
 dn ___,0,$000
 dn A_5,1,$C07
 dn ___,0,$000
 dn ___,0,$000
 dn F#5,1,$C07
 dn A_5,1,$C0B
 dn ___,0,$000
 dn A_5,1,$C07
 dn A_5,1,$C03
 dn F#5,1,$C0B
 dn ___,0,$000
 dn F#5,1,$C07
 dn F#5,1,$C03
 dn B_5,1,$C07
 dn ___,0,$000
 dn ___,0,$000
 dn B_5,1,$C03
 dn A_5,1,$C03
 dn G#5,1,$C07
 dn ___,0,$000
 dn G#5,1,$C03
 dn E_5,1,$C0B
 dn ___,0,$000
 dn E_5,1,$C07
 dn E_5,1,$C03
 dn C#5,1,$C0B
 dn ___,0,$000

P22:
 dn F#5,1,$C07
 dn ___,0,$000
 dn ___,0,$E00
 dn F#5,1,$C07
 dn B_5,1,$C07
 dn C#6,1,$C07
 dn ___,0,$E00
 dn F#5,1,$C07
 dn ___,0,$E00
 dn F#5,1,$C07
 dn ___,0,$000
 dn ___,0,$000
 dn ___,0,$000
 dn ___,0,$000
 dn ___,0,$000
 dn ___,0,$000
 dn ___,0,$C07
 dn ___,0,$C07
 dn ___,0,$C03
 dn ___,0,$E00
 dn E_5,1,$C07
 dn ___,0,$000
 dn ___,0,$E00
 dn E_5,1,$C07
 dn G#5,1,$C07
 dn A_5,1,$C07
 dn ___,0,$E00
 dn B_5,1,$C07
 dn ___,0,$E00
 dn G#5,1,$C07
 dn ___,0,$C03
 dn ___,0,$C03
 dn F#5,1,$C07
 dn ___,0,$000
 dn ___,0,$E00
 dn F#5,1,$C07
 dn B_5,1,$C07
 dn C#6,1,$C07
 dn ___,0,$E00
 dn F#5,1,$C07
 dn ___,0,$E00
 dn F#5,1,$C07
 dn ___,0,$000
 dn ___,0,$000
 dn ___,0,$000
 dn ___,0,$000
 dn F#5,1,$C07
 dn ___,0,$C07
 dn ___,0,$C03
 dn ___,0,$E00
 dn E_5,1,$C07
 dn ___,0,$000
 dn E_5,1,$C07
 dn ___,0,$000
 dn C#5,1,$C07
 dn ___,0,$000
 dn B_4,1,$C07
 dn C#5,1,$C07
 dn C#5,1,$C00
 dn B_4,1,$C07
 dn ___,0,$E00
 dn A_4,1,$C07
 dn ___,0,$C07
 dn ___,0,$C03

P23:
 dn C_7,1,$C03
 dn C_7,1,$C00
 dn ___,0,$000
 dn ___,0,$000
 dn C_7,1,$C07
 dn C_7,1,$C00
 dn ___,0,$000
 dn ___,0,$000
 dn C_7,1,$C03
 dn C_7,1,$C00
 dn ___,0,$000
 dn ___,0,$000
 dn C_7,1,$C07
 dn C_7,1,$C00
 dn ___,0,$000
 dn C_7,1,$C03
 dn C_7,1,$C03
 dn C_7,1,$C00
 dn ___,0,$000
 dn ___,0,$000
 dn C_7,1,$C07
 dn C_7,1,$C00
 dn ___,0,$000
 dn C_7,1,$C03
 dn C_7,1,$C03
 dn C_7,1,$C00
 dn C_7,1,$C03
 dn C_7,1,$C03
 dn C_7,1,$C07
 dn C_7,1,$C00
 dn ___,0,$000
 dn ___,0,$000
 dn C_7,1,$C03
 dn C_7,1,$C00
 dn ___,0,$000
 dn ___,0,$000
 dn C_7,1,$C07
 dn C_7,1,$C00
 dn ___,0,$000
 dn ___,0,$000
 dn C_7,1,$C03
 dn C_7,1,$C00
 dn ___,0,$000
 dn ___,0,$000
 dn C_7,1,$C07
 dn C_7,1,$C00
 dn ___,0,$000
 dn C_7,1,$C03
 dn C_7,1,$C03
 dn C_7,1,$C00
 dn ___,0,$000
 dn ___,0,$000
 dn C_7,1,$C07
 dn C_7,1,$C00
 dn ___,0,$000
 dn C_7,1,$C03
 dn C_7,1,$C03
 dn C_7,1,$C00
 dn C_7,1,$C07
 dn C_7,1,$C00
 dn C_7,1,$C07
 dn C_7,1,$C00
 dn ___,0,$000
 dn ___,0,$000

P30:
 dn F#5,1,$C03
 dn C#6,1,$C07
 dn F#6,1,$C07
 dn C#6,1,$C07
 dn F#5,1,$C03
 dn E_5,1,$C03
 dn F#5,1,$C03
 dn C#6,1,$C07
 dn F#6,1,$C07
 dn C#6,1,$C07
 dn F#5,1,$C03
 dn G#5,1,$C07
 dn A_5,1,$C07
 dn A_5,1,$C03
 dn B_5,1,$C07
 dn B_5,1,$C03
 dn F#5,1,$C03
 dn C#6,1,$C07
 dn F#6,1,$C07
 dn C#6,1,$C07
 dn F#5,1,$C03
 dn E_5,1,$C03
 dn F#5,1,$C03
 dn C#6,1,$C07
 dn F#6,1,$C07
 dn C#6,1,$C07
 dn F#5,1,$C03
 dn G#5,1,$C07
 dn B_5,1,$C07
 dn C#6,1,$C07
 dn G#5,1,$C07
 dn A_5,1,$C07
 dn F#5,1,$C03
 dn C#6,1,$C07
 dn F#6,1,$C07
 dn C#6,1,$C07
 dn F#5,1,$C03
 dn E_5,1,$C03
 dn F#5,1,$C03
 dn C#6,1,$C07
 dn F#6,1,$C07
 dn C#6,1,$C07
 dn F#5,1,$C03
 dn G#5,1,$C07
 dn A_5,1,$C07
 dn A_5,1,$C03
 dn B_5,1,$C07
 dn B_5,1,$C03
 dn F#5,1,$C03
 dn C#6,1,$C07
 dn F#6,1,$C07
 dn C#6,1,$C07
 dn F#5,1,$C03
 dn E_5,1,$C03
 dn F#5,1,$C03
 dn C#6,1,$C07
 dn F#6,1,$C07
 dn C#6,1,$C03
 dn F#5,1,$C07
 dn G#5,1,$C03
 dn B_5,1,$C07
 dn B_5,1,$C03
 dn G#5,1,$C07
 dn G#5,1,$C03

P32:
 dn F#5,1,$C0F
 dn ___,0,$000
 dn ___,0,$E00
 dn F#5,1,$C0F
 dn B_5,1,$C0F
 dn C#6,1,$C0F
 dn ___,0,$E00
 dn F#5,1,$C0F
 dn ___,0,$E00
 dn F#5,1,$C0F
 dn ___,0,$E00
 dn ___,0,$000
 dn ___,0,$000
 dn ___,0,$000
 dn ___,0,$000
 dn ___,0,$000
 dn ___,0,$000
 dn ___,0,$000
 dn ___,0,$000
 dn ___,0,$000
 dn E_5,1,$C0F
 dn ___,0,$000
 dn ___,0,$E00
 dn E_5,1,$C0F
 dn G#5,1,$C0F
 dn A_5,1,$C0F
 dn ___,0,$E00
 dn B_5,1,$C0F
 dn ___,0,$E00
 dn G#5,1,$C0F
 dn ___,0,$C0B
 dn ___,0,$C07
 dn F#5,1,$C0F
 dn ___,0,$000
 dn ___,0,$E00
 dn F#5,1,$C0F
 dn B_5,1,$C0F
 dn C#6,1,$C0F
 dn ___,0,$E00
 dn F#5,1,$C0F
 dn ___,0,$C01
 dn ___,0,$C0F
 dn ___,0,$E00
 dn ___,0,$000
 dn ___,0,$000
 dn ___,0,$000
 dn ___,0,$000
 dn ___,0,$000
 dn ___,0,$000
 dn ___,0,$000
 dn E_5,1,$C0F
 dn ___,0,$000
 dn ___,0,$C0F
 dn ___,0,$000
 dn C#5,1,$C0F
 dn ___,0,$000
 dn B_4,1,$C0F
 dn C#5,1,$C0F
 dn ___,0,$E00
 dn B_4,1,$C0F
 dn ___,0,$E00
 dn A_4,1,$C0F
 dn ___,0,$C0B
 dn ___,0,$C07

P33:
 dn C_7,1,$C03
 dn C_7,1,$C00
 dn ___,0,$000
 dn ___,0,$000
 dn C_7,1,$C07
 dn C_7,1,$C00
 dn ___,0,$000
 dn ___,0,$000
 dn C_7,1,$C03
 dn C_7,1,$C00
 dn ___,0,$000
 dn ___,0,$000
 dn C_7,1,$C07
 dn C_7,1,$C00
 dn ___,0,$000
 dn ___,0,$000
 dn C_7,1,$C03
 dn C_7,1,$C00
 dn ___,0,$000
 dn ___,0,$000
 dn C_7,1,$C07
 dn C_7,1,$C00
 dn ___,0,$000
 dn ___,0,$000
 dn C_7,1,$C03
 dn C_7,1,$C00
 dn ___,0,$000
 dn ___,0,$000
 dn C_7,1,$C07
 dn C_7,1,$C00
 dn ___,0,$000
 dn ___,0,$000
 dn C_7,1,$C03
 dn C_7,1,$C00
 dn ___,0,$000
 dn ___,0,$000
 dn C_7,1,$C07
 dn C_7,1,$C00
 dn ___,0,$000
 dn ___,0,$000
 dn C_7,1,$C03
 dn C_7,1,$C00
 dn ___,0,$000
 dn ___,0,$000
 dn C_7,1,$C07
 dn C_7,1,$C00
 dn ___,0,$000
 dn ___,0,$000
 dn C_7,1,$C03
 dn C_7,1,$C00
 dn ___,0,$000
 dn ___,0,$000
 dn C_7,1,$C07
 dn C_7,1,$C00
 dn ___,0,$000
 dn ___,0,$000
 dn C_7,1,$C03
 dn C_7,1,$C00
 dn ___,0,$000
 dn ___,0,$000
 dn C_7,1,$C07
 dn C_7,1,$C00
 dn ___,0,$000
 dn ___,0,$000

P40:
 dn C#6,1,$C0B
 dn C#6,1,$C07
 dn C#6,1,$C07
 dn C#6,1,$C03
 dn A_5,1,$C0B
 dn A_5,1,$C07
 dn A_5,1,$C07
 dn A_5,1,$C03
 dn B_5,1,$C0B
 dn B_5,1,$C07
 dn B_5,1,$C07
 dn G#5,1,$C0B
 dn G#5,1,$C07
 dn G#5,1,$C07
 dn A_5,1,$C0B
 dn A_5,1,$C07
 dn A_5,1,$C07
 dn A_5,1,$C03
 dn E_5,1,$C03
 dn F#5,1,$C07
 dn G#5,1,$C0B
 dn A_5,1,$C0B
 dn G#5,1,$C0B
 dn E_5,1,$C0B
 dn G#5,1,$C0F
 dn G#5,1,$C0B
 dn G#5,1,$C07
 dn G#5,1,$C03
 dn F#5,1,$C0F
 dn F#5,1,$C0B
 dn F#5,1,$C07
 dn F#5,1,$C03
 dn E_5,1,$C0F
 dn E_5,1,$C0B
 dn E_5,1,$C07
 dn E_5,1,$C03
 dn B_5,1,$C0B
 dn B_5,1,$C07
 dn C#6,1,$C07
 dn C#6,1,$C03
 dn B_5,1,$C0B
 dn ___,0,$000
 dn B_5,1,$C07
 dn G#5,1,$C07
 dn ___,0,$000
 dn G#5,1,$C03
 dn A_5,1,$C0B
 dn ___,0,$000
 dn A_5,1,$C07
 dn ___,0,$000
 dn B_5,1,$C0B
 dn ___,0,$000
 dn B_5,1,$C07
 dn ___,0,$000
 dn D_5,1,$C0B
 dn ___,0,$000
 dn D_5,1,$C07
 dn ___,0,$000
 dn D_5,1,$C03
 dn ___,0,$000
 dn C#5,1,$C0B
 dn ___,0,$000
 dn C#5,1,$C07
 dn ___,0,$000

P41:
 dn E_6,2,$C0B
 dn E_6,2,$C07
 dn E_6,2,$C03
 dn E_6,2,$C00
 dn ___,0,$000
 dn ___,0,$000
 dn ___,0,$000
 dn ___,0,$000
 dn ___,0,$000
 dn ___,0,$000
 dn ___,0,$000
 dn ___,0,$000
 dn ___,0,$000
 dn ___,0,$000
 dn ___,0,$000
 dn ___,0,$000
 dn ___,0,$000
 dn ___,0,$000
 dn ___,0,$000
 dn ___,0,$000
 dn ___,0,$000
 dn ___,0,$000
 dn ___,0,$000
 dn ___,0,$000
 dn E_6,2,$C0B
 dn E_6,2,$C07
 dn E_6,2,$C03
 dn E_6,2,$C00
 dn D_6,2,$C0B
 dn D_6,2,$C07
 dn D_6,2,$C03
 dn D_6,2,$C00
 dn C#6,2,$C0B
 dn C#6,2,$C07
 dn C#6,2,$C03
 dn C#6,2,$C00
 dn ___,0,$000
 dn ___,0,$000
 dn ___,0,$000
 dn ___,0,$000
 dn ___,0,$000
 dn ___,0,$000
 dn ___,0,$000
 dn ___,0,$000
 dn ___,0,$000
 dn ___,0,$000
 dn ___,0,$000
 dn ___,0,$000
 dn ___,0,$000
 dn ___,0,$000
 dn ___,0,$000
 dn ___,0,$000
 dn ___,0,$000
 dn ___,0,$000
 dn ___,0,$000
 dn ___,0,$000
 dn ___,0,$000
 dn ___,0,$000
 dn ___,0,$000
 dn ___,0,$000
 dn ___,0,$000
 dn ___,0,$000
 dn ___,0,$000
 dn ___,0,$000

P42:
 dn E_4,1,$C0F
 dn ___,0,$000
 dn A_4,1,$C0B
 dn ___,0,$000
 dn ___,0,$000
 dn ___,0,$000
 dn ___,0,$000
 dn A_4,1,$C07
 dn ___,0,$000
 dn ___,0,$000
 dn ___,0,$000
 dn ___,0,$000
 dn ___,0,$000
 dn ___,0,$000
 dn A_4,1,$C03
 dn ___,0,$000
 dn ___,0,$000
 dn ___,0,$000
 dn ___,0,$000
 dn ___,0,$000
 dn ___,0,$000
 dn ___,0,$000
 dn ___,0,$000
 dn ___,0,$000
 dn E_5,1,$C03
 dn ___,0,$E00
 dn E_5,1,$C07
 dn ___,0,$E00
 dn D_5,1,$C0B
 dn ___,0,$E00
 dn D_5,1,$C0B
 dn ___,0,$E00
 dn E_4,1,$C0F
 dn ___,0,$000
 dn A_4,1,$C0F
 dn ___,0,$C0B
 dn ___,0,$000
 dn ___,0,$000
 dn ___,0,$000
 dn ___,0,$C07
 dn ___,0,$000
 dn ___,0,$000
 dn ___,0,$000
 dn ___,0,$C03
 dn ___,0,$000
 dn ___,0,$000
 dn ___,0,$000
 dn ___,0,$000
 dn ___,0,$000
 dn ___,0,$000
 dn ___,0,$000
 dn ___,0,$000
 dn ___,0,$000
 dn ___,0,$000
 dn ___,0,$E00
 dn ___,0,$000
 dn ___,0,$000
 dn ___,0,$000
 dn ___,0,$000
 dn ___,0,$000
 dn ___,0,$000
 dn ___,0,$000
 dn ___,0,$000
 dn ___,0,$000

duty_instruments:
itSquareinst1: db 8,128,244,128
itSquareinst2: db 11,64,244,128

wave_instruments:
itWaveinst1: db 0,32,0,128

noise_instruments:
itNoiseinst1: db 180,0,0,0,0,0,0,0

routines:

waves:
wave0: db 1,18,52,87,155,205,238,255,254,237,203,151,84,50,17,0
